<svg width="32" height="32" viewBox="0 0 32 32" xmlns="http://www.w3.org/2000/svg">
  <!-- Background persegi dengan warna dark seperti logo asli -->
  <rect width="32" height="32" fill="#2D3748"/>
  
  <!-- G letter -->
  <text x="8" y="20" font-size="12" font-weight="bold" fill="#F7DC6F" font-family="serif">G</text>
  
  <!-- Fashion silhouette di tengah (woman figure) -->
  <path d="M16 6 C15.2 6, 14.5 6.7, 14.5 7.5 L14.5 9.5 C14 9.5, 13.5 10, 13.5 10.5 L13.5 14.5 C13.5 15, 14 15.5, 14.5 15.5 L17.5 15.5 C18 15.5, 18.5 15, 18.5 14.5 L18.5 10.5 C18.5 10, 18 9.5, 17.5 9.5 L17.5 7.5 C17.5 6.7, 16.8 6, 16 6 Z" fill="#F7DC6F" opacity="0.8"/>
  
  <!-- F letter -->
  <text x="22" y="20" font-size="12" font-weight="bold" fill="#F7DC6F" font-family="serif">F</text>
  
  <!-- Decorative flourishes -->
  <path d="M4 24 Q8 22, 12 24" stroke="#D4AF37" stroke-width="1" fill="none" opacity="0.7"/>
  <path d="M20 24 Q24 22, 28 24" stroke="#D4AF37" stroke-width="1" fill="none" opacity="0.7"/>
  
  <!-- Small decorative dots -->
  <circle cx="6" cy="26" r="0.5" fill="#D4AF37" opacity="0.6"/>
  <circle cx="10" cy="25" r="0.5" fill="#D4AF37" opacity="0.6"/>
  <circle cx="22" cy="25" r="0.5" fill="#D4AF37" opacity="0.6"/>
  <circle cx="26" cy="26" r="0.5" fill="#D4AF37" opacity="0.6"/>
  
  <!-- Bottom text "Gita Fashion" sangat kecil -->
  <text x="16" y="30" font-size="4" fill="#D4AF37" font-family="serif" text-anchor="middle" opacity="0.8">Gita Fashion</text>
</svg>